<svg xmlns="http://www.w3.org/2000/svg" width="220" height="220" viewBox="0 0 220 220" fill="none">
  <defs>
    <g id="sprig" stroke="#15803d" stroke-width="1.6" stroke-linecap="round" stroke-linejoin="round" fill="none">
      <path d="M11 20A7 7 0 0 1 9.8 6.1C15.5 5 17 4.48 19 2c1 2 2 4.18 2 8 0 5.5-4.78 10-10 10Z" />
      <path d="M2 21c0-3 1.85-5.36 5.08-6C9.5 14.52 12 13 13 12" />
    </g>
  </defs>
  <g stroke-opacity="0.7" opacity="0.4">
    <use href="#sprig" transform="translate(14 22) rotate(8) scale(2.1)" />
    <use href="#sprig" transform="translate(150 150) rotate(-26) scale(2.4)" />
    <use href="#sprig" transform="translate(168 30) rotate(128) scale(1.5)" />
    <use href="#sprig" transform="translate(40 162) rotate(205) scale(1.7)" />
    <use href="#sprig" transform="translate(108 92) rotate(58) scale(1.3)" />
  </g>
</svg>
